<?xml version="1.0" encoding="UTF-8" standalone="no"?>
<!-- Created with Inkscape (http://www.inkscape.org/) -->

<svg
   xmlns:dc="http://purl.org/dc/elements/1.1/"
   xmlns:cc="http://creativecommons.org/ns#"
   xmlns:rdf="http://www.w3.org/1999/02/22-rdf-syntax-ns#"
   xmlns:svg="http://www.w3.org/2000/svg"
   xmlns="http://www.w3.org/2000/svg"
   xmlns:sodipodi="http://sodipodi.sourceforge.net/DTD/sodipodi-0.dtd"
   xmlns:inkscape="http://www.inkscape.org/namespaces/inkscape"
   id="svg3374"
   version="1.1"
   inkscape:version="0.91 r13725"
   width="463"
   height="463"
   viewBox="0 0 463 463"
   sodipodi:docname="fb.svg">
  <metadata
     id="metadata3380">
    <rdf:RDF>
      <cc:Work
         rdf:about="">
        <dc:format>image/svg+xml</dc:format>
        <dc:type
           rdf:resource="http://purl.org/dc/dcmitype/StillImage" />
        <dc:title></dc:title>
      </cc:Work>
    </rdf:RDF>
  </metadata>
  <defs
     id="defs3378">
    <inkscape:perspective
       sodipodi:type="inkscape:persp3d"
       inkscape:vp_x="0 : 231.5 : 1"
       inkscape:vp_y="0 : 1000 : 0"
       inkscape:vp_z="463 : 231.5 : 1"
       inkscape:persp3d-origin="231.5 : 154.33333 : 1"
       id="perspective3690" />
  </defs>
  <sodipodi:namedview
     pagecolor="#ffffeb"
     bordercolor="#666666"
     borderopacity="1"
     objecttolerance="10"
     gridtolerance="10"
     guidetolerance="10"
     inkscape:pageopacity="0"
     inkscape:pageshadow="2"
     inkscape:window-width="1019"
     inkscape:window-height="963"
     id="namedview3376"
     showgrid="false"
     inkscape:zoom="1.4417037"
     inkscape:cx="219.29044"
     inkscape:cy="224.34811"
     inkscape:window-x="82"
     inkscape:window-y="20"
     inkscape:window-maximized="0"
     inkscape:current-layer="svg3374" />
  <rect
     style="fill:#ffffff;fill-opacity:1"
     id="rect3724"
     width="403.68906"
     height="424.49777"
     x="30.023321"
     y="38.408928" />
  <g
     id="g4763">
    <path
       style="fill:#abcddb"
       d="M 0,231.5 0,0 231.5,0 463,0 l 0,231.5 0,231.5 -77,0 -77,0 0,-90.5 0,-90.5 24.8476,0 24.8476,0 7.90838,-31.25 7.90837,-31.25 -32.75597,-0.26348 L 309,218.97304 l 0,-28.79018 0,-28.79017 2.55722,-5.13168 c 3.00574,-6.03172 8.30939,-11.10472 15.65688,-14.97597 5.21674,-2.7486 5.55737,-2.78926 26.0359,-3.10744 L 374,137.85519 374,104.9276 374,72 343.72377,72 c -16.65193,0 -34.08943,0.472716 -38.75,1.050479 -35.27096,4.372485 -63.8686,31.676881 -71.38554,68.157361 C 232.31411,147.39127 232,155.84613 232,183.95784 L 232,219 l -26,0 -26,0 0,32 0,32 26,0 26,0 0,90 0,90 -116,0 -116,0 0,-231.5 z"
       id="path4777"
       inkscape:connector-curvature="0" />
    <path
       style="fill:#89b8cd"
       d="M 0,231.5 0,0 231.5,0 463,0 l 0,231.5 0,231.5 -77,0 -77,0 0,-90.5 0,-90.5 24.96146,0 24.96145,0 0.98116,-3.75 c 0.53963,-2.0625 3.95958,-15.59762 7.59988,-30.07805 3.64029,-14.48042 6.86426,-26.96792 7.16437,-27.75 C 375.13327,219.21033 370.31695,219 342.10699,219 L 309,219 l 0,-28.34028 0,-28.34028 3.07085,-6.14532 c 3.42623,-6.85647 7.76447,-10.93076 15.92915,-14.95993 5.34853,-2.63944 6.05769,-2.7231 25.75,-3.0379 l 20.25,-0.32371 0,-33.0029 0,-33.002905 -36.25,0.405911 c -40.02946,0.448231 -42.08506,0.715046 -56.59028,7.345365 C 258.15468,90.113632 240.88103,111.24639 234.3967,136.8084 232.08487,145.92187 232,147.54447 232,182.62822 L 232,219 l -26,0 -26,0 0,32 0,32 26,0 26,0 0,90 0,90 -116,0 -116,0 0,-231.5 z"
       id="path4775"
       inkscape:connector-curvature="0" />
    <path
       style="fill:#76aec5"
       d="M 0,231.5 0,0 231.5,0 463,0 l 0,231.5 0,231.5 -77,0 -77,0 0,-90.5 0,-90.5 24.96146,0 24.96145,0 0.97582,-3.75 c 0.53671,-2.0625 3.95596,-15.45 7.59835,-29.75 3.64239,-14.3 6.85094,-26.7875 7.13011,-27.75 0.47615,-1.64162 -1.54035,-1.75 -32.5598,-1.75 L 309,219 l 0.0439,-27.75 c 0.0472,-29.8435 0.32562,-31.8467 5.45489,-39.24823 1.48428,-2.14182 5.01676,-5.46302 7.84995,-7.38046 C 330.61349,139.02795 335.86596,138 356.1815,138 l 17.8185,0 0,-33.0758 0,-33.075802 -36.75,0.398713 c -34.34071,0.372575 -37.23046,0.5431 -44.07863,2.601099 -25.25056,7.588245 -45.55932,26.40862 -55.58245,51.50893 -5.12687,12.83891 -5.55276,17.14959 -5.57156,56.39286 L 232,219 l -26,0 -26,0 0,32 0,32 26,0 26,0 0,90 0,90 -116,0 -116,0 0,-231.5 z"
       id="path4773"
       inkscape:connector-curvature="0" />
    <path
       style="fill:#559ab7"
       d="M 0,231.5 0,0 231.5,0 463,0 l 0,231.5 0,231.5 -77,0 -77,0 0,-90.5 0,-90.5 24.92904,0 24.92904,0 1.51327,-5.25 c 0.8323,-2.8875 4.25799,-16.275 7.61264,-29.75 3.35465,-13.475 6.33593,-25.2875 6.62508,-26.25 0.49327,-1.64203 -1.51797,-1.75 -32.59723,-1.75 l -33.12293,0 0.30554,-29.25 c 0.28956,-27.71923 0.41817,-29.45934 2.45757,-33.25 3.27613,-6.08942 9.1527,-11.44078 16.34798,-14.88689 6.49981,-3.11302 6.50058,-3.11312 26.25,-3.43817 L 374,137.84988 374,104.92494 374,72 340.58797,72 c -36.41825,0 -42.88281,0.654011 -55.20952,5.585473 C 273.63681,82.282866 266.89735,86.876614 257,96.928761 246.13513,107.96356 240.69002,116.71212 236.10524,130.5 231.81346,143.40672 231,152.52465 231,187.72377 L 231,219 l -25.5,0 -25.5,0 0,32 0,32 25.5,0 25.5,0 0,90 0,90 -115.5,0 L 0,463 0,231.5 Z"
       id="path4771"
       inkscape:connector-curvature="0" />
    <path
       style="fill:#3386a9"
       d="M 0,231.5 0,0 231.5,0 463,0 l 0,231.5 0,231.5 -77,0 -77,0 0,-90.48283 0,-90.48283 25.15145,-0.26717 25.15144,-0.26717 7.83075,-30.5 c 4.30692,-16.775 7.83877,-30.8375 7.84856,-31.25 C 374.99199,219.3375 360.15,219 342,219 l -33,0 0,-26.8185 c 0,-21.00515 0.32729,-27.92061 1.50989,-31.90284 2.11191,-7.11158 8.88635,-14.36333 17.28053,-18.49809 L 334.45049,138.5 354.22524,138.15957 374,137.81914 374,104.90957 374,72 339.95784,72 c -37.31694,0 -43.45541,0.650577 -56.12491,5.94832 -13.20625,5.52218 -27.33689,16.976832 -36.45542,29.55168 -4.95723,6.83623 -11.00424,19.8417 -13.58435,29.21622 -1.96933,7.15534 -2.17534,10.79125 -2.55166,45.03378 L 230.83214,219 205.41607,219 180,219 l 0,32 0,32 25.5,0 25.5,0 0,90 0,90 -115.5,0 L 0,463 0,231.5 Z"
       id="path4769"
       inkscape:connector-curvature="0" />
    <path
       style="fill:#006894"
       d="M 0,231.5 0,0 231.5,0 463,0 l 0,231.5 0,231.5 -77,0 -77,0 0,-90.5 0,-90.5 25.26717,0 25.26716,0 7.48284,-29.75 c 4.11556,-16.3625 7.62663,-30.5375 7.80238,-31.5 0.29908,-1.6379 -1.80394,-1.75 -32.83026,-1.75 l -33.14981,0 0.3354,-28.75 0.33539,-28.75 2.69753,-5.12335 c 3.44611,-6.5451 10.4498,-12.70456 17.64511,-15.51814 4.94245,-1.93265 8.04908,-2.262 24.89709,-2.63941 l 19.25,-0.43122 0,-32.95887 0,-32.958859 -37.75,0.35448 C 299.90663,72.565903 298.23917,72.66578 291.5,74.905054 264.33539,83.931247 244.11702,104.42571 235.17422,132 c -3.58622,11.05778 -4.15886,18.3761 -4.16667,53.25 L 231,219 l -25.5,0 -25.5,0 0,32 0,32 25.5,0 25.5,0 0,90 0,90 -115.5,0 L 0,463 0,231.5 Z"
       id="path4767"
       inkscape:connector-curvature="0" />
    <path
       style="fill:#006694"
       d="m 228.23544,375.25 c -0.12949,-48.5375 0.10206,-88.25009 0.51456,-88.25019 0.67944,-1.7e-4 0.67255,62.58054 -0.016,145.00019 -0.14473,17.325 -0.36909,-8.2125 -0.49859,-56.75 z m -34.93109,-87.99676 c 5.94239,-0.17711 15.39239,-0.17644 21,10e-4 5.60761,0.17792 0.74565,0.32282 -10.80435,0.322 -11.55,-8.2e-4 -16.13804,-0.14638 -10.19565,-0.32348 z M 309,287.45578 c 0,-0.11599 0.6,-0.70885 1.33333,-1.31746 0.99637,-0.82691 1.33334,-0.77361 1.33334,0.21089 0,0.7246 -0.6,1.31746 -1.33334,1.31746 -0.73333,0 -1.33333,-0.0949 -1.33333,-0.21089 z m -129,-1.83334 c 0,-0.20765 0.7875,-0.99515 1.75,-1.75 1.58606,-1.24387 1.62143,-1.2085 0.37756,0.37756 C 180.82119,285.91575 180,286.44548 180,285.62244 Z m 174.44615,-0.70957 c -0.36954,-0.59793 -0.19401,-1.56501 0.39006,-2.14908 0.74927,-0.74927 1.01429,-0.42917 0.90007,1.08713 -0.1843,2.44655 -0.35007,2.583 -1.29013,1.06195 z M 358.5,285 c -0.33992,-0.55 -0.14148,-1 0.44098,-1 0.58246,0 1.05902,0.45 1.05902,1 0,0.55 -0.19844,1 -0.44098,1 -0.24254,0 -0.7191,-0.45 -1.05902,-1 z m 3.63832,-6.33333 c -0.82691,-0.99637 -0.77361,-1.33334 0.21089,-1.33334 0.7246,0 1.31746,0.6 1.31746,1.33334 0,0.73333 -0.0949,1.33333 -0.21089,1.33333 -0.11599,0 -0.70885,-0.6 -1.31746,-1.33333 z M 366,273.94098 c 0,-0.58246 0.45,-0.7809 1,-0.44098 0.55,0.33992 1,0.81648 1,1.05902 0,0.24254 -0.45,0.44098 -1,0.44098 -0.55,0 -1,-0.47656 -1,-1.05902 z m -2,-4.5 c 0,-0.85746 0.45734,-1.27636 1.01631,-0.9309 0.55897,0.34546 0.75742,1.04702 0.44098,1.55902 C 364.60006,271.45614 364,271.19751 364,269.44098 Z m 2.56429,-5.73411 c 0.37553,-0.98622 0.93469,-1.54122 1.24258,-1.23333 0.30789,0.30789 6.4e-4,1.11479 -0.68278,1.79313 -0.98762,0.98026 -1.10248,0.8654 -0.5598,-0.5598 z m -0.23096,-4.16288 c 0,-0.80081 0.38234,-1.21971 0.84965,-0.9309 0.4673,0.28881 0.59075,0.94401 0.27431,1.45601 -0.80862,1.30838 -1.12396,1.16106 -1.12396,-0.52511 z m 7.25077,-15.18543 c -0.52667,-1.37248 -0.38034,-1.43434 0.89301,-0.37756 1.73524,1.44013 1.91584,2.019 0.62988,2.019 -0.49116,0 -1.17646,-0.73865 -1.52289,-1.64144 z M 374,242 c -1.2819,-0.82843 -1.24555,-0.9716 0.25,-0.98469 0.9625,-0.008 1.75,0.43469 1.75,0.98469 0,1.21961 -0.11279,1.21961 -2,0 z M 176.3717,218.70633 c -0.38079,-0.66348 -0.32411,-0.87273 0.12597,-0.46501 0.45007,0.40773 1.42222,0.24013 2.16032,-0.37244 0.84375,-0.70025 1.34201,-0.73675 1.34201,-0.0983 0,1.56155 -2.84763,2.29597 -3.6283,0.93576 z m 51.90551,-29.00909 0.16582,-29.19724 0.2944,27.95082 c 0.19416,18.43411 0.65801,28.17554 1.36233,28.61084 0.68069,0.42068 0.51381,0.87265 -0.46022,1.24642 -1.35165,0.51868 -1.50899,-2.78577 -1.36233,-28.61084 z M 371.65498,217.25 c -0.25469,-0.4125 0.68774,-0.81919 2.09427,-0.90376 1.84381,-0.11085 2.1658,0.0941 1.15404,0.73469 -1.73174,1.09639 -2.64638,1.144 -3.24831,0.16907 z m -61.39215,-53.08901 c 0.10603,-1.40761 0.49829,-1.79987 1.14908,-1.14908 0.65079,0.65079 0.59583,1.38035 -0.16099,2.13717 -0.86544,0.86544 -1.10934,0.62154 -0.98809,-0.98809 z m -83.5295,-5.28508 c 0.67834,-0.68342 1.48524,-0.99067 1.79313,-0.68278 0.30789,0.30789 -0.24711,0.86705 -1.23333,1.24258 -1.4252,0.54268 -1.54006,0.42782 -0.5598,-0.5598 z m 91.34056,-2.28688 c -0.90221,-1.08709 -0.87292,-1.58299 0.12755,-2.16033 0.71421,-0.41214 0.96496,-0.38111 0.55724,0.069 -0.40773,0.45007 -0.24013,1.42222 0.37244,2.16032 0.61257,0.73811 0.88877,1.34201 0.61377,1.34201 -0.275,0 -1.02695,-0.63494 -1.671,-1.41097 z m 2.51021,-6.23047 c -0.52667,-1.37248 -0.38034,-1.43434 0.89301,-0.37756 1.73524,1.44013 1.91584,2.019 0.62988,2.019 -0.49116,0 -1.17646,-0.73865 -1.52289,-1.64144 z m 3.90582,-1.37487 c -0.34546,-0.55897 -1.15952,-0.71183 -1.80902,-0.33968 -0.64949,0.37215 -0.83038,0.29147 -0.40196,-0.1793 1.29427,-1.42219 3.38773,-1.33059 3.38773,0.14824 0,1.64817 -0.32414,1.75029 -1.17675,0.37074 z m 7.01962,-5.99912 c 0.61536,-0.99568 0.34343,-1.14344 -1.0955,-0.59526 -1.53541,0.58494 -1.66677,0.48008 -0.66404,-0.53006 0.90012,-0.90679 1.55429,-0.95496 2.33713,-0.17212 0.78285,0.78285 0.7396,1.30192 -0.15451,1.85451 -0.85723,0.5298 -0.98822,0.35734 -0.42308,-0.55707 z m 37.30296,-0.66768 c 0.72187,-0.28887 1.58438,-0.25335 1.91667,0.0789 0.33229,0.33229 -0.25834,0.56864 -1.3125,0.52522 -1.16495,-0.048 -1.4019,-0.28494 -0.60417,-0.60416 z M 232.60301,132.16667 c -0.28327,-0.45834 0.12038,-0.83334 0.89699,-0.83334 0.77661,0 1.18026,0.375 0.89699,0.83334 C 234.11373,132.625 233.71008,133 233.5,133 c -0.21008,0 -0.61373,-0.375 -0.89699,-0.83333 z m 2.02199,-4.96442 c -0.27117,-0.43876 -0.12898,-1.3868 0.31598,-2.10676 0.56811,-0.91921 1.01271,-0.97944 1.49304,-0.20225 C 236.81023,125.50196 236.61492,126 236,126 c -0.61492,0 -0.83992,0.45 -0.5,1 0.33992,0.55 0.39303,1 0.11803,1 -0.275,0 -0.72186,-0.35899 -0.99303,-0.79775 z M 240.9388,115.5 c -0.0505,-0.55 -0.24231,-1.78571 -0.42624,-2.74603 -0.18394,-0.96032 0.0828,-2.00391 0.59282,-2.3191 0.50998,-0.31519 0.62537,-1.0615 0.25642,-1.65848 -0.41718,-0.67501 -0.20135,-0.79526 0.57082,-0.31803 0.87707,0.54206 0.92942,1.0796 0.17831,1.83071 -0.65615,0.65615 -0.71142,1.48738 -0.14434,2.17067 0.55912,0.6737 0.5558,1.68161 -0.008,2.5738 -0.51012,0.80655 -0.96881,1.01646 -1.01931,0.46646 z M 243,105.94098 c 0,-0.58246 -0.41891,-0.80012 -0.9309,-0.48369 -0.512,0.31644 -1.18914,0.1575 -1.50476,-0.35319 -0.81174,-1.31342 2.21188,-0.72788 3.64578,0.70602 0.91984,0.91984 0.91754,1.18988 -0.0101,1.18988 -0.66,0 -1.2,-0.47656 -1.2,-1.05902 z m 5.56429,-3.23411 c 0.37553,-0.98622 0.93469,-1.54122 1.24258,-1.23333 0.30789,0.30789 6.4e-4,1.11479 -0.68278,1.79313 -0.98762,0.98026 -1.10248,0.8654 -0.5598,-0.5598 z m 7.70544,-8.776148 c -0.17299,-2.296565 0.29838,-2.498605 1.07961,-0.462747 0.30982,0.807386 0.22638,1.676211 -0.18543,1.930722 -0.41181,0.254511 -0.81419,-0.406078 -0.89418,-1.467975 z m 8.18915,-7.997253 c -0.36253,-0.586592 -0.44468,-1.281 -0.18255,-1.543128 0.26212,-0.262129 0.74306,0.21781 1.06875,1.066531 0.67618,1.762107 0.0999,2.072058 -0.8862,0.476597 z M 272.5,82 c -0.33992,-0.55 -0.14148,-1 0.44098,-1 0.58246,0 1.05902,0.45 1.05902,1 0,0.55 -0.19844,1 -0.44098,1 -0.24254,0 -0.7191,-0.45 -1.05902,-1 z m -3.89699,-0.833333 c -0.28327,-0.458334 0.12038,-0.833334 0.89699,-0.833334 0.77661,0 1.18026,0.375 0.89699,0.833334 C 270.11373,81.625 269.71008,82 269.5,82 c -0.21008,0 -0.61373,-0.375 -0.89699,-0.833333 z M 277.5,79 c 0.99549,-1.1 2.03498,-2 2.30998,-2 0.275,0 -0.31449,0.9 -1.30998,2 -0.99549,1.1 -2.03498,2 -2.30998,2 -0.275,0 0.31449,-0.9 1.30998,-2 z m -4.42105,-2.583333 c 0.048,-1.164943 0.28494,-1.4019 0.60416,-0.604167 0.28887,0.721875 0.25335,1.584375 -0.0789,1.916667 -0.33229,0.332291 -0.56864,-0.258334 -0.52522,-1.3125 z M 276,77 c 0,-0.55 0.47656,-1 1.05902,-1 0.58246,0 0.7809,0.45 0.44098,1 -0.33992,0.55 -0.81648,1 -1.05902,1 C 276.19844,78 276,77.55 276,77 Z m 5.07895,-0.583333 c 0.048,-1.164943 0.28494,-1.4019 0.60416,-0.604167 0.28887,0.721875 0.25335,1.584375 -0.0789,1.916667 -0.33229,0.332291 -0.56864,-0.258334 -0.52522,-1.3125 z M 284,76 c -1.2819,-0.828426 -1.24555,-0.971601 0.25,-0.984687 C 285.2125,75.006891 286,75.45 286,76 c 0,1.21961 -0.11279,1.21961 -2,0 z m 2.5,-2 c -0.33992,-0.55 -0.14148,-1 0.44098,-1 0.58246,0 1.05902,0.45 1.05902,1 0,0.55 -0.19844,1 -0.44098,1 -0.24254,0 -0.7191,-0.45 -1.05902,-1 z m -10.6875,-0.683114 c 0.72187,-0.288871 1.58438,-0.253344 1.91667,0.07895 0.33229,0.332292 -0.25834,0.568641 -1.3125,0.52522 -1.16495,-0.04798 -1.4019,-0.284941 -0.60417,-0.604167 z"
       id="path4765"
       inkscape:connector-curvature="0" />
  </g>
</svg>
