<?xml version="1.0" encoding="UTF-8" standalone="no"?>
<!-- Created with Inkscape (http://www.inkscape.org/) -->

<svg
   xmlns:dc="http://purl.org/dc/elements/1.1/"
   xmlns:cc="http://creativecommons.org/ns#"
   xmlns:rdf="http://www.w3.org/1999/02/22-rdf-syntax-ns#"
   xmlns:svg="http://www.w3.org/2000/svg"
   xmlns="http://www.w3.org/2000/svg"
   xmlns:sodipodi="http://sodipodi.sourceforge.net/DTD/sodipodi-0.dtd"
   xmlns:inkscape="http://www.inkscape.org/namespaces/inkscape"
   id="svg3374"
   version="1.1"
   inkscape:version="0.91 r13725"
   width="463"
   height="463"
   viewBox="0 0 463 463"
   sodipodi:docname="li.svg">
  <metadata
     id="metadata3380">
    <rdf:RDF>
      <cc:Work
         rdf:about="">
        <dc:format>image/svg+xml</dc:format>
        <dc:type
           rdf:resource="http://purl.org/dc/dcmitype/StillImage" />
        <dc:title></dc:title>
      </cc:Work>
    </rdf:RDF>
  </metadata>
  <defs
     id="defs3378">
    <inkscape:perspective
       sodipodi:type="inkscape:persp3d"
       inkscape:vp_x="0 : 231.5 : 1"
       inkscape:vp_y="0 : 1000 : 0"
       inkscape:vp_z="463 : 231.5 : 1"
       inkscape:persp3d-origin="231.5 : 154.33333 : 1"
       id="perspective3690" />
  </defs>
  <sodipodi:namedview
     pagecolor="#ffffeb"
     bordercolor="#666666"
     borderopacity="1"
     objecttolerance="10"
     gridtolerance="10"
     guidetolerance="10"
     inkscape:pageopacity="0"
     inkscape:pageshadow="2"
     inkscape:window-width="1137"
     inkscape:window-height="954"
     id="namedview3376"
     showgrid="false"
     inkscape:zoom="1.4417037"
     inkscape:cx="214.36998"
     inkscape:cy="216.42871"
     inkscape:window-x="82"
     inkscape:window-y="20"
     inkscape:window-maximized="0"
     inkscape:current-layer="svg3374" />
  <rect
     style="fill:#ffffff;fill-opacity:1"
     id="rect3724"
     width="387.73572"
     height="380.10583"
     x="30.023321"
     y="38.408928" />
  <g
     id="g4989">
    <path
       style="fill:#a6cde3"
       d="M 0,231.5 0,0 231.5,0 463,0 463,231.5 463,463 231.5,463 0,463 0,231.5 Z m 141,55.5 0,-110 -33.5,0 -33.5,0 0,110 0,110 33.5,0 33.5,0 0,-110 z m 111.22328,41.75 0.27672,-68.25 3.08181,-6.50286 c 3.91443,-8.25976 10.6473,-15.00001 19.17924,-19.20027 6.28867,-3.0959 7.33822,-3.29687 17.21792,-3.29687 9.27787,0 11.18509,0.31137 16.14104,2.63517 10.64645,4.992 17.14429,13.10343 20.34708,25.39979 1.30088,4.99442 1.53291,15.6921 1.53291,70.67514 l 0,64.7899 33.56834,0 33.56835,0 -0.42371,-74.25 c -0.45242,-79.28337 -0.50806,-80.23265 -5.72895,-97.75 -10.98269,-36.84954 -41.14614,-56.26875 -80.79717,-52.01715 -20.69005,2.21849 -34.03502,8.67372 -48.93686,23.67173 l -9.25,9.30969 0,-13.48213 0,-13.48214 -33.5,0 -33.5,0 0,110 0,110 33.47328,0 33.47328,0 0.27672,-68.25 z M 120.62338,141.05891 c 8.66561,-4.01246 13.74907,-9.01021 18.08183,-17.77695 3.36313,-6.80483 3.69479,-8.22148 3.69479,-15.78196 0,-7.560476 -0.33166,-8.977129 -3.69479,-15.781962 -4.3864,-8.875269 -9.39631,-13.742653 -18.5578,-18.029831 C 114.46071,71.02708 112.41723,70.6 105.371,70.6 97.959248,70.6 96.494252,70.945804 89.718038,74.29479 80.842769,78.681186 75.975385,83.691102 71.688207,92.852591 69.039739,98.512236 68.6,100.59793 68.6,107.5 c 0,6.90207 0.439739,8.98776 3.088207,14.64741 3.983978,8.51356 8.802702,13.7696 16.275521,17.75257 10.982261,5.85349 21.699582,6.23379 32.659652,1.15893 z"
       id="path5003"
       inkscape:connector-curvature="0" />
    <path
       style="fill:#86bbda"
       d="M 0,231.5 0,0 231.5,0 463,0 463,231.5 463,463 231.5,463 0,463 0,231.5 Z m 141,55.5 0,-110 -33.5,0 -33.5,0 0,110 0,110 33.5,0 33.5,0 0,-110 z m 111.2231,42.25 0.2769,-67.75 2.41249,-6 c 1.70974,-4.25223 4.18575,-7.76204 8.5,-12.04898 9.44344,-9.38367 19.83479,-13.22338 32.83638,-12.13338 16.65325,1.39615 28.93083,12.86305 32.63654,30.48158 C 329.638,265.37734 330,287.8686 330,331.04922 L 330,395 l 33.55261,0 33.55261,0 -0.35804,-74.75 c -0.31577,-65.9262 -0.56271,-75.78662 -2.09191,-83.53167 C 392.34611,225.02295 387.70374,211.96726 383.02122,204 369.31245,180.67467 344.94314,168.62916 315,170.37778 c -13.86988,0.80997 -21.52646,2.73595 -32.99721,8.30032 -8.29239,4.02257 -10.79787,5.90768 -19.75,14.8598 L 252,203.7907 252,190.39535 252,177 l -33.5,0 -33.5,0 0,110 0,110 33.4731,0 33.4731,0 0.2769,-67.75 z M 121.49939,141.07491 c 7.55072,-3.7172 14.66574,-11.04679 18.30483,-18.85684 2.26485,-4.86074 2.66433,-7.06748 2.66433,-14.71807 0,-7.65059 -0.39948,-9.857335 -2.66433,-14.718065 -3.71428,-7.971418 -10.73852,-15.131967 -18.67819,-19.040655 -5.96186,-2.935012 -7.43637,-3.239794 -15.605,-3.225554 -7.653064,0.01334 -9.888128,0.41975 -14.739095,2.680056 -7.971418,3.714279 -15.131967,10.738517 -19.040655,18.678189 -2.935012,5.961856 -3.239794,7.436368 -3.225554,15.604999 0.01331,7.63639 0.421658,9.89211 2.660407,14.69618 4.790145,10.27903 14.315072,18.56052 24.753216,21.52178 7.424501,2.1063 18.212541,1.00007 25.570041,-2.62202 z"
       id="path5001"
       inkscape:connector-curvature="0" />
    <path
       style="fill:#61a7cf"
       d="M 0,231.5 0,0 231.5,0 463,0 463,231.5 463,463 231.5,463 0,463 0,231.5 Z m 141,55.5 0,-110 -33.5,0 -33.5,0 0,110 0,110 33.5,0 33.5,0 0,-110 z m 111.21674,42.25 0.28326,-67.75 3.16452,-6.67961 c 6.0544,-12.7795 16.32996,-20.62544 30.10641,-22.98784 12.25079,-2.10078 23.99362,1.29113 32.26718,9.32034 4.77809,4.63698 9.46345,13.94584 10.94118,21.73793 C 329.6062,266.19649 330,292.71925 330,331.63649 L 330,395 l 33.55201,0 33.552,0 -0.36658,-75.75 c -0.359,-74.18471 -0.41293,-75.95523 -2.60969,-85.68186 C 386.57497,200.12675 368.8691,179.701 341,172.27921 c -9.2446,-2.46193 -33.95242,-2.40707 -43,0.0955 -17.15971,4.74632 -30.24113,13.27416 -42.26898,27.55532 L 252,204.36 l 0,-13.68 0,-13.68 -33.5,0 -33.5,0 0,110 0,110 33.46674,0 33.46674,0 0.28326,-67.75 z M 116.86433,143.11936 C 141.10127,135.57597 150.75099,105.776 135.6279,85.174233 117.76314,60.837563 78.847334,67.325636 69.880644,96.135666 60.819952,125.24773 87.752272,152.18005 116.86433,143.11936 Z"
       id="path4999"
       inkscape:connector-curvature="0" />
    <path
       style="fill:#328dc2"
       d="M 0,231.5 0,0 231.5,0 463,0 463,231.5 463,463 231.5,463 0,463 0,231.5 Z m 141,55.5 0,-110 -33.5,0 -33.5,0 0,110 0,110 33.5,0 33.5,0 0,-110 z m 111,46.13649 c 0,-38.71699 0.39677,-65.95565 1.00765,-69.17684 3.19645,-16.85482 15.74305,-29.07807 32.96029,-32.11082 21.09553,-3.71591 39.40876,9.98584 42.97202,32.15117 0.64513,4.01301 1.04782,30.31775 1.05249,68.75 L 330,395 l 33.5,0 33.5,0 0,-71.62166 c 0,-77.82992 -0.33367,-83.76517 -5.66548,-100.77604 -7.11146,-22.68878 -21.23795,-39.06291 -40.83452,-47.33163 -9.50853,-4.0121 -20.65965,-5.59416 -34.96282,-4.96032 -7.17045,0.31775 -15.73718,1.31171 -19.03718,2.20879 -14.27553,3.8807 -29.58671,13.80792 -39.38786,25.53768 L 252,204.17489 252,190.58745 252,177 l -33.5,0 -33.5,0 0,110 0,110 33.5,0 33.5,0 0,-63.86351 z M 121.17515,141.78622 c 7.90227,-3.63013 14.20539,-9.78249 18.07492,-17.64261 C 142.26263,118.02422 142.5,116.8086 142.5,107.5 142.5,98.191404 142.26263,96.975776 139.25007,90.856395 135.39711,83.029926 129.12078,76.885179 121.17515,73.160407 116.21583,70.835568 114.23866,70.5 105.5,70.5 96.76134,70.5 94.784171,70.835568 89.824854,73.160407 81.879218,76.885179 75.60289,83.029926 71.749933,90.856395 68.738743,96.972989 68.5,98.1941 68.5,107.47897 c 0,8.7377 0.337469,10.74075 2.635165,15.64104 4.641624,9.89918 12.785988,17.10626 23.150874,20.48658 6.830371,2.2276 20.021201,1.3346 26.889111,-1.82037 z"
       id="path4997"
       inkscape:connector-curvature="0" />
    <path
       style="fill:#2384bc"
       d="M 0,231.5 0,0 231.5,0 463,0 463,231.5 463,463 231.5,463 0,463 0,231.5 Z m 141,55.5 0,-110 -33.5,0 -33.5,0 0,110 0,110 33.5,0 33.5,0 0,-110 z m 111.20415,42.75 c 0.2908,-66.10274 0.3324,-67.33904 2.43807,-72.4692 6.63839,-16.17343 20.59444,-25.58773 37.85778,-25.53765 11.18313,0.0324 18.24518,2.84203 25.58,10.17685 6.30309,6.30309 9.3268,12.92594 10.91528,23.90785 0.53511,3.69944 0.97393,33.96147 0.98491,67.92215 L 330,395 l 33.5,0 33.5,0 0,-71.92764 c 0,-45.35093 -0.39379,-74.81794 -1.06576,-79.75 -5.05473,-37.09997 -22.10579,-60.75813 -50.43424,-69.97694 -6.47028,-2.1056 -10.5814,-2.69647 -21.5,-3.09011 -27.75042,-1.00044 -44.44342,5.25985 -62.71739,23.52058 L 252,203.05179 252,190.02589 252,177 l -33.5,0 -33.5,0 0,110 0,110 33.45415,0 33.45416,0 0.29584,-67.25 z M 122,141.63809 c 7.26955,-3.66116 13.44989,-9.77115 17.33543,-17.13809 2.99733,-5.68292 3.16457,-6.58132 3.16457,-17 0,-10.091929 -0.23236,-11.454035 -2.81469,-16.5 C 135.99488,83.788757 129.1624,76.917091 122.14843,73.362528 116.9505,70.728306 115.62268,70.5 105.5,70.5 95.377325,70.5 94.049499,70.728306 88.851572,73.362528 81.837601,76.917091 75.005124,83.788757 71.314688,91 68.732358,96.045965 68.5,97.408071 68.5,107.5 c 0,10.41868 0.167238,11.31708 3.164573,17 3.078417,5.83665 9.203558,12.52626 14.394304,15.72083 5.94415,3.65823 11.27208,4.80095 20.941123,4.49138 8.02134,-0.25681 10.35607,-0.73529 15,-3.07412 z"
       id="path4995"
       inkscape:connector-curvature="0" />
    <path
       style="fill:#107ab6"
       d="M 0,231.5 0,0 231.5,0 463,0 463,231.5 463,463 231.5,463 0,463 0,231.5 Z m 141,55.5 0,-110 -33.5,0 -33.5,0 0,110 0,110 33.5,0 33.5,0 0,-110 z m 111.01981,47.75 c 0.0114,-35.90389 0.441,-65.16379 1.015,-69.13464 3.16313,-21.88224 23.57256,-36.89531 45.45917,-33.43952 14.4339,2.27904 23.32628,10.00291 28.67521,24.90708 2.30156,6.41305 2.30321,6.45837 2.6314,72.16708 l 0.32838,65.75 33.48142,0 33.48141,0 -0.36061,-77.25 c -0.34715,-74.3645 -0.4388,-77.5675 -2.45378,-85.75 -8.51231,-34.56712 -26.41733,-54.04508 -55.62056,-60.50678 -11.14248,-2.46546 -34.19122,-1.69383 -44.15685,1.47829 -13.55575,4.31487 -22.15634,9.60334 -32.75,20.13783 l -9.75,9.69554 0,-12.90244 0,-12.90244 -33.5,0 -33.5,0 0,110 0,110 33.5,0 33.5,0 0.0198,-62.25 z m -129.877,-193.03144 c 6.66334,-3.26007 15.10242,-11.84073 18.16308,-18.4678 C 142.1438,119.27126 142.5,116.71422 142.5,107.5 142.5,98.285779 142.1438,95.728745 140.30589,91.749239 137.24335,85.118096 128.80767,76.544262 122.10948,73.2548 117.01991,70.755326 115.48047,70.5 105.5,70.5 95.519525,70.5 93.98009,70.755326 88.890518,73.2548 82.192325,76.544262 73.756654,85.118096 70.694106,91.749239 68.856199,95.728745 68.5,98.285779 68.5,107.5 c 0,13.02046 1.584152,17.4684 9.072796,25.47437 8.917861,9.53392 15.427525,12.12742 29.460534,11.73734 8.02098,-0.22296 10.41792,-0.69779 15.10948,-2.99315 z"
       id="path4993"
       inkscape:connector-curvature="0" />
    <path
       style="fill:#0e7ab7"
       d="m 72.333333,398.66667 c 0,-0.73334 0.592856,-1.33334 1.317457,-1.33334 0.984499,0 1.037796,0.33697 0.210889,1.33334 C 73.253066,399.4 72.660211,400 72.544222,400 c -0.115989,0 -0.210889,-0.6 -0.210889,-1.33333 z m 6,-0.12268 c 0,-0.80081 0.382341,-1.21971 0.849646,-0.9309 0.467304,0.28881 0.590747,0.94401 0.274316,1.45601 -0.808625,1.30838 -1.123962,1.16106 -1.123962,-0.52511 z M 188.87244,398.25 c -1.26951,-1.61876 -1.22245,-1.63998 0.62756,-0.28297 1.1,0.80687 2.1875,1.59437 2.41667,1.75 0.22916,0.15563 -0.0532,0.28297 -0.62756,0.28297 -0.57432,0 -1.66182,-0.7875 -2.41667,-1.75 z m 141.26588,0.0833 c 0.60861,-0.73333 1.61397,-1.2978 2.23412,-1.25438 0.70253,0.0492 0.65403,0.26985 -0.12867,0.58541 -0.69093,0.27855 -1.04822,0.84303 -0.79399,1.25438 0.25423,0.41136 -0.18582,0.74793 -0.97789,0.74793 -1.08673,0 -1.16859,-0.3272 -0.33357,-1.33334 z m 4.32056,-0.39986 c -0.36253,-0.58659 -0.44468,-1.281 -0.18255,-1.54313 0.26212,-0.26213 0.74306,0.21781 1.06875,1.06653 0.67618,1.76211 0.0999,2.07206 -0.8862,0.4766 z M 395,398.10765 c 0,-0.67413 -0.45,-0.94757 -1,-0.60765 -0.55,0.33992 -1,0.14148 -1,-0.44098 0,-0.58246 0.42344,-1.05902 0.94098,-1.05902 1.23462,0 2.42741,1.96494 1.65916,2.7332 C 395.27006,399.06327 395,398.78178 395,398.10765 Z m 3.03635,-1.56385 c -1.32936,-1.60178 -0.59945,-3.58895 1.27267,-3.46485 0.85875,0.0569 0.84229,0.21965 -0.059,0.58333 -0.6875,0.27741 -1.25,0.94344 -1.25,1.48007 0,0.53663 0.375,0.74392 0.83333,0.46066 0.45834,-0.28327 0.83334,0.14017 0.83334,0.94098 0,1.80821 -0.12949,1.8082 -1.63032,-1.9e-4 z M 252.75,396.33772 c 0.6875,-0.27741 1.8125,-0.27741 2.5,0 0.6875,0.27741 0.125,0.50439 -1.25,0.50439 -1.375,0 -1.9375,-0.22698 -1.25,-0.50439 z M 328.5,395 c 0.33992,-0.55 0.81648,-1 1.05902,-1 0.24254,0 0.44098,0.45 0.44098,1 0,0.55 -0.47656,1 -1.05902,1 -0.58246,0 -0.7809,-0.45 -0.44098,-1 z m -75.76667,-2.12409 c 0.67834,-0.68342 1.48524,-0.99067 1.79313,-0.68278 0.30789,0.30789 -0.24711,0.86705 -1.23333,1.24258 -1.4252,0.54268 -1.54006,0.42782 -0.5598,-0.5598 z m 0.34562,-124.45924 c 0.048,-1.16495 0.28494,-1.4019 0.60416,-0.60417 0.28887,0.72187 0.25335,1.58438 -0.0789,1.91667 -0.3323,0.33229 -0.56864,-0.25834 -0.52522,-1.3125 z m 67.93636,-6.08334 c 0.0122,-1.46513 0.19484,-1.54972 0.90921,-0.42122 0.69361,1.09571 1.00695,0.87166 1.39849,-1 l 0.5046,-2.41211 -0.16381,2.42167 c -0.19093,2.8228 -2.67132,4.14486 -2.64849,1.41166 z m 0.52186,-7.52632 c 0.22006,-1.14269 0.71092,-2.35424 1.0908,-2.69232 0.37988,-0.33808 0.41927,0.14374 0.0875,1.0707 -0.33174,0.92697 -0.0887,1.85688 0.54011,2.06648 0.67235,0.22412 0.47149,0.63887 -0.48766,1.00693 -1.24507,0.47778 -1.53625,0.13432 -1.23079,-1.45179 z m -63.55594,-0.46742 c 0.56718,-0.28073 0.83312,-0.83096 0.59098,-1.22275 -0.24213,-0.39178 -3.7e-4,-1.36585 0.53724,-2.16459 0.74819,-1.11159 0.90865,-0.88418 0.68402,0.96942 -0.16141,1.33192 -0.86722,2.53567 -1.56847,2.675 -0.70125,0.13933 -0.81095,0.0237 -0.24377,-0.25708 z M 262.5,247 c -1.63041,-0.70061 -1.68751,-0.87242 -0.30902,-0.92971 0.93004,-0.0387 1.9691,0.37971 2.30902,0.92971 0.71066,1.14988 0.67591,1.14988 -2,0 z m 6.15425,-0.45861 c -0.32025,-0.83457 -0.26097,-1.46951 0.13174,-1.41097 1.88889,0.28154 2.1915,-0.30396 1.15655,-2.23778 -0.85577,-1.59902 -0.82887,-2.38299 0.11152,-3.25 0.93766,-0.86449 1.07067,-0.84339 0.5464,0.0867 -0.38112,0.67614 -0.26309,2.03253 0.26229,3.01422 0.65349,1.22106 0.54752,2.34247 -0.33549,3.55005 -1.10989,1.51787 -1.37231,1.55259 -1.87301,0.24779 z M 316,246.05902 c 0,-0.51754 0.44485,-1.21592 0.98855,-1.55194 0.56686,-0.35034 0.7345,0.0511 0.39301,0.94098 C 316.71677,247.18048 316,247.49745 316,246.05902 Z M 313.12726,243.5 c 0.17755,-1.1 -0.0898,-2.675 -0.59418,-3.5 -0.79142,-1.29458 -0.68529,-1.31205 0.77496,-0.12756 1.33785,1.08521 1.69196,1.10265 1.69196,0.0833 0,-0.70901 0.28913,-0.99999 0.6425,-0.64661 0.35338,0.35337 0.0159,1.39754 -0.75,2.32036 -0.76587,0.92282 -1.2425,1.8712 -1.05917,2.1075 0.18334,0.2363 0.0268,0.72964 -0.34778,1.0963 C 313.11094,245.2 312.94971,244.6 313.12726,243.5 Z m -46.31476,-0.18311 c 0.72187,-0.28887 1.58438,-0.25335 1.91667,0.0789 0.33229,0.33229 -0.25834,0.56864 -1.3125,0.52522 -1.16495,-0.048 -1.4019,-0.28494 -0.60417,-0.60416 z m 10.63471,-4.23148 c 0.31089,-0.50302 -5e-5,-1.11642 -0.69098,-1.3631 -0.73069,-0.26087 -0.8852,-0.81953 -0.36933,-1.33541 0.51588,-0.51587 1.07454,-0.36136 1.33541,0.36933 0.24668,0.69093 0.97258,0.94205 1.6131,0.55804 0.64052,-0.384 0.54699,0.0632 -0.20785,0.99377 -1.44601,1.78265 -2.64424,2.33698 -1.68035,0.77737 z M 308.25,238.96884 C 305.9579,238.04752 305.13651,236 307.05902,236 c 0.58246,0 0.7809,0.45 0.44098,1 -0.33992,0.55 0.057,1 0.88197,1 0.825,0 1.77811,0.45 2.11803,1 0.71652,1.15935 0.71167,1.15928 -2.25,-0.0312 z m 86.78544,-0.75022 c 0.0195,-0.39524 0.63823,-1.80664 1.375,-3.13644 l 1.33956,-2.41783 1.28872,2.41783 c 1.2181,2.28533 1.18729,2.33562 -0.56223,0.91782 -1.66775,-1.35153 -1.78918,-1.33498 -1.22686,0.16724 0.37176,0.99316 0.0431,1.89017 -0.81277,2.21862 -0.79027,0.30325 -1.42091,0.22799 -1.40142,-0.16724 z m -98.30211,-1.34271 c 0.67834,-0.68342 1.48524,-0.99067 1.79313,-0.68278 0.30789,0.30789 -0.24711,0.86705 -1.23333,1.24258 -1.4252,0.54268 -1.54006,0.42782 -0.5598,-0.5598 z m 1.77222,-2.86978 C 297.47782,232.87051 297.1912,232 297.84501,232 c 0.63525,0 1.15499,0.48032 1.15499,1.06739 0,0.62778 0.92668,0.80672 2.25,0.43449 1.2375,-0.34809 1.8,-0.26068 1.25,0.19425 -0.55,0.45492 -1.26526,1.16216 -1.58946,1.57163 -0.32421,0.40948 -1.40645,-0.15826 -2.40499,-1.26163 z M 396,230.5 c -0.71755,-0.86459 -0.81474,-1.5 -0.22943,-1.5 0.5585,0 1.27447,0.675 1.59106,1.5 0.31658,0.825 0.41982,1.5 0.22943,1.5 -0.19039,0 -0.90637,-0.675 -1.59106,-1.5 z m -2.43571,-3.79313 c 0.37553,-0.98622 0.93469,-1.54122 1.24258,-1.23333 0.30789,0.30789 6.4e-4,1.11479 -0.68278,1.79313 -0.98762,0.98026 -1.10248,0.8654 -0.5598,-0.5598 z m 3.41671,-0.22976 c -1.05678,-1.27335 -0.99492,-1.41968 0.37756,-0.89301 0.90279,0.34643 1.64144,1.03173 1.64144,1.52289 0,1.28596 -0.57887,1.10536 -2.019,-0.62988 z M 389,210.55902 c 0,-0.79254 0.40803,-1.69316 0.90674,-2.00138 0.49871,-0.30822 0.67122,0.34022 0.38337,1.44098 C 389.6795,212.33361 389,212.62877 389,210.55902 Z M 384.5,205 c -0.33992,-0.55 -0.14148,-1 0.44098,-1 0.58246,0 1.05902,0.45 1.05902,1 0,0.55 -0.19844,1 -0.44098,1 -0.24254,0 -0.7191,-0.45 -1.05902,-1 z m 2.92857,-3 c 0,-1.29524 0.3381,-1.63333 0.98572,-0.98571 0.64761,0.64761 0.64761,1.32381 0,1.97142 -0.64762,0.64762 -0.98572,0.30953 -0.98572,-0.98571 z M 384.5,202 c -0.33992,-0.55 -0.14148,-1 0.44098,-1 0.58246,0 1.05902,0.45 1.05902,1 0,0.55 -0.19844,1 -0.44098,1 -0.24254,0 -0.7191,-0.45 -1.05902,-1 z m -2.01008,-4.01631 c -0.34546,-0.55897 -0.95059,-0.81701 -1.34473,-0.57342 -0.39414,0.24359 -0.71662,-0.42407 -0.71662,-1.48369 0,-2.43179 0.0128,-2.42808 1.97947,0.57342 0.90094,1.375 1.42925,2.5 1.17403,2.5 -0.25522,0 -0.74669,-0.45734 -1.09215,-1.01631 z m -123.5797,-6.81593 c 1.74842,-3.26696 4.01583,-4.64292 5.38216,-3.26613 0.94652,0.95377 0.79172,1.05841 -0.71599,0.48401 -1.51064,-0.57553 -1.78993,-0.38449 -1.30093,0.88982 0.43834,1.14228 0.19368,1.45806 -0.82639,1.06662 C 260.55411,189.99866 260,190.40052 260,191.39301 260,192.27686 259.53417,193 258.96482,193 c -0.69372,0 -0.71173,-0.60439 -0.0546,-1.83224 z m -2.83127,-1.75109 c 0.048,-1.16495 0.28494,-1.4019 0.60416,-0.60417 0.28887,0.72187 0.25335,1.58437 -0.0789,1.91667 -0.33229,0.33229 -0.56864,-0.25834 -0.52522,-1.3125 z M 258,188.62244 c 0,-0.20765 0.7875,-0.99515 1.75,-1.75 1.58606,-1.24387 1.62143,-1.2085 0.37756,0.37756 C 258.82119,188.91575 258,189.44548 258,188.62244 Z M 264.5,185 c -0.33992,-0.55 -0.14148,-1 0.44098,-1 0.58246,0 1.05902,0.45 1.05902,1 0,0.55 -0.19844,1 -0.44098,1 -0.24254,0 -0.7191,-0.45 -1.05902,-1 z m 3.5,0 c -0.90129,-0.58246 -1.02463,-0.97549 -0.30902,-0.98469 0.65504,-0.008 1.4691,0.43469 1.80902,0.98469 0.7673,1.24153 0.42112,1.24153 -1.5,0 z m -7.1875,-0.68311 c 0.72187,-0.28887 1.58438,-0.25335 1.91667,0.0789 0.33229,0.33229 -0.25834,0.56864 -1.3125,0.52522 -1.16495,-0.048 -1.4019,-0.28494 -0.60417,-0.60416 z M 72.379424,182.62058 c 0.126145,-0.85948 0.508613,-1.84195 0.84993,-2.18327 0.341316,-0.34131 0.517366,0.0826 0.391222,0.94211 -0.126145,0.85948 -0.508613,1.84195 -0.84993,2.18327 -0.341316,0.34131 -0.517366,-0.0826 -0.391222,-0.94211 z m 69.720966,-0.91606 c -1.26492,-2.10631 -1.24361,-2.12762 0.47833,-0.47833 0.99123,0.94941 1.58698,1.94144 1.3239,2.20452 -0.26308,0.26308 -1.07408,-0.5137 -1.80223,-1.72619 z m 220.50262,-0.53785 c -0.28327,-0.45834 0.12038,-0.83334 0.89699,-0.83334 0.77661,0 1.18026,0.375 0.89699,0.83334 C 364.11373,181.625 363.71008,182 363.5,182 c -0.21008,0 -0.61373,-0.375 -0.89699,-0.83333 z M 274,179.22568 c 0,-1.1592 0.37326,-2.33833 0.82946,-2.62028 0.98294,-0.60749 0.85423,3.04425 -0.14242,4.0409 C 274.30917,181.02417 274,180.38489 274,179.22568 Z m -20.65409,0.10973 c 0.3666,-0.64052 0.124,-1.34544 -0.53912,-1.56648 -0.7879,-0.26263 -0.65099,-0.61474 0.39513,-1.01617 1.68833,-0.64788 1.93116,1.51422 0.33337,2.9683 -0.47077,0.42842 -0.55599,0.25487 -0.18938,-0.38565 z M 277,178.94098 c 0,-0.58246 0.45,-0.7809 1,-0.44098 0.55,0.33992 1,0.81648 1,1.05902 0,0.24254 -0.45,0.44098 -1,0.44098 -0.55,0 -1,-0.47656 -1,-1.05902 z m 4.07895,-3.52431 c 0.048,-1.16495 0.28494,-1.4019 0.60416,-0.60417 0.28887,0.72187 0.25335,1.58437 -0.0789,1.91667 -0.33229,0.33229 -0.56864,-0.25834 -0.52522,-1.3125 z M 285,175.18146 c 0,-1.20855 1.8972,-2.61759 2.5907,-1.9241 0.2517,0.2517 -0.22824,1.02686 -1.06653,1.72258 C 285.57378,175.76869 285,175.84456 285,175.18146 Z m 4.65407,-3.72235 c 0.32521,-0.8475 0.19859,-1.46921 -0.28139,-1.38158 -0.47997,0.0876 -1.54768,0.0991 -2.37268,0.0256 -1.31032,-0.11682 -1.31456,-0.25102 -0.0335,-1.06122 0.92964,-0.58796 1.93633,-0.53753 2.75,0.13776 1.50449,1.24861 1.71649,3.82035 0.31492,3.82035 -0.53273,0 -0.70253,-0.6934 -0.37731,-1.54089 z m 2.91022,-0.16598 c -0.54268,-1.4252 -0.42782,-1.54006 0.5598,-0.5598 0.68342,0.67834 0.99067,1.48524 0.68278,1.79313 -0.30789,0.30789 -0.86705,-0.24711 -1.24258,-1.23333 z M 346.25,170.33772 c -0.6875,-0.27741 -1.25,-0.97199 -1.25,-1.5435 0,-0.62736 0.59438,-0.54582 1.5,0.20578 1.20288,0.99831 1.84663,0.97304 3.25,-0.12756 1.58606,-1.24387 1.62143,-1.2085 0.37756,0.37756 -1.42783,1.82062 -1.80148,1.92543 -3.87756,1.08772 z m -239.5,-22 c 0.6875,-0.27741 1.8125,-0.27741 2.5,0 0.6875,0.27741 0.125,0.50439 -1.25,0.50439 -1.375,0 -1.9375,-0.22698 -1.25,-0.50439 z m 11.0625,-0.0208 c 0.72187,-0.28887 1.58437,-0.25335 1.91667,0.0789 0.33229,0.33229 -0.25834,0.56864 -1.3125,0.52522 -1.16495,-0.048 -1.4019,-0.28494 -0.60417,-0.60416 z M 110.5,147 c -0.33992,-0.55 -0.14148,-1 0.44098,-1 0.58246,0 1.05902,0.45 1.05902,1 0,0.55 -0.19844,1 -0.44098,1 -0.24254,0 -0.7191,-0.45 -1.05902,-1 z m 8.5,-2.37756 c 0,-0.20765 0.7875,-0.99515 1.75,-1.75 1.58606,-1.24387 1.62143,-1.2085 0.37756,0.37756 C 119.82119,144.91575 119,145.44548 119,144.62244 Z m -29.442363,-1.52918 c -0.308218,-0.49871 0.340224,-0.67122 1.440983,-0.38337 2.334987,0.61061 2.630147,1.29011 0.560397,1.29011 -0.792541,0 -1.693162,-0.40803 -2.00138,-0.90674 z M 81,142 c 0,-0.55 0.476558,-1 1.059017,-1 0.582459,0 0.780902,0.45 0.440983,1 -0.339919,0.55 -0.816476,1 -1.059017,1 C 81.198442,143 81,142.55 81,142 Z m 48.75,0.33772 c 2.0472,-0.82607 1.41676,-2.19409 -0.75,-1.62747 -1.19529,0.31258 -2,0.0307 -2,-0.70061 0,-0.69502 0.67043,-0.96635 1.55194,-0.62808 0.85356,0.32754 1.29622,0.18178 0.98369,-0.32392 -0.31254,-0.50569 -0.11091,-1.2021 0.44806,-1.54756 0.55897,-0.34546 1.01631,0.0431 1.01631,0.86352 0,0.82039 0.9,1.77727 2,2.1264 1.1,0.34913 2,1.10955 2,1.68983 0,0.6853 -0.4945,0.64466 -1.41097,-0.11594 -0.96456,-0.80051 -1.61601,-0.83925 -2.05902,-0.12245 -0.35642,0.57671 -1.18399,1.01303 -1.83903,0.96961 -0.85875,-0.0569 -0.84229,-0.21965 0.059,-0.58333 z m 2.60172,-5.0978 c 0.36341,-0.58801 0.32044,-1.25878 -0.0955,-1.49061 -0.41593,-0.23184 -0.2228,-0.29555 0.42916,-0.14159 0.65197,0.15396 1.40394,-0.25729 1.67105,-0.9139 0.35192,-0.86506 0.50741,-0.8399 0.56461,0.0914 0.0619,1.00802 0.5642,1.03553 2.32895,0.1276 1.73906,-0.89472 1.99582,-0.88697 1.1307,0.0341 -0.61562,0.65544 -1.74062,1.28568 -2.5,1.40053 -0.75939,0.11485 -2.01273,0.6032 -2.78521,1.08521 -0.92214,0.5754 -1.17758,0.50922 -0.74377,-0.19271 z m -57.973428,-1.95155 c 0.332396,-0.33239 0.06746,-1.32076 -0.58874,-2.19636 -0.999095,-1.33315 -0.965164,-1.38876 0.208676,-0.34201 0.770975,0.6875 1.78833,1.25 2.260789,1.25 0.472459,0 0.535313,-0.5625 0.139675,-1.25 -0.395639,-0.6875 -0.334171,-0.89948 0.136594,-0.47106 1.626682,1.48037 1.220808,3.31382 -0.766726,3.46354 -1.097043,0.0826 -1.722664,-0.12171 -1.390268,-0.45411 z M 136,133.10699 c 0,-0.49116 0.73865,-1.17646 1.64144,-1.52289 1.37248,-0.52667 1.43434,-0.38034 0.37756,0.89301 -1.44013,1.73524 -2.019,1.91584 -2.019,0.62988 z m 2.66045,-4.54947 c -0.37462,-0.97623 -0.22986,-1.40944 0.351,-1.05044 0.5437,0.33602 0.98855,0.0594 0.98855,-0.61473 0,-0.67413 0.26625,-0.95943 0.59166,-0.63402 0.32542,0.32542 0.16747,1.34967 -0.351,2.27613 -0.87525,1.56398 -0.98828,1.56563 -1.58021,0.0231 z m -71.315373,-9.10065 c -0.325685,-0.84872 -0.368713,-1.76657 -0.09562,-2.03966 0.273094,-0.2731 0.736558,0.42131 1.029919,1.54313 0.62315,2.38293 -0.06922,2.75089 -0.9343,0.49653 z M 64.085598,117.5 c 0.10413,-1.89422 1.770759,-5.08385 1.828804,-3.5 0.03024,0.825 -0.381246,2.175 -0.914402,3 -0.533156,0.825 -0.944637,1.05 -0.914402,0.5 z M 142.5,117 c 0.33992,-0.55 0.81648,-1 1.05902,-1 0.24254,0 0.44098,0.45 0.44098,1 0,0.55 -0.47656,1 -1.05902,1 -0.58246,0 -0.7809,-0.45 -0.44098,-1 z M 65.078947,104.41667 c 0.04798,-1.16495 0.284941,-1.4019 0.604167,-0.60417 0.288871,0.72187 0.253344,1.58437 -0.07895,1.91667 -0.332292,0.33229 -0.568641,-0.25834 -0.52522,-1.3125 z M 141.981,95.477108 c -1.05678,-1.273347 -0.99492,-1.419678 0.37756,-0.893011 0.90279,0.346434 1.64144,1.031736 1.64144,1.522892 0,1.285959 -0.57887,1.105364 -2.019,-0.629881 z M 66.256735,94 c 0.224949,-0.825 1.271708,-1.604565 2.326131,-1.732366 C 69.92991,92.104366 70.053951,92.223296 69,92.667578 68.175,93.015349 67.128241,93.794913 66.673869,94.399944 66.142515,95.107483 65.993675,94.964776 66.256735,94 Z M 142.5,88 c -0.33992,-0.55 -0.14148,-1 0.44098,-1 0.58246,0 1.05902,0.45 1.05902,1 0,0.55 -0.19844,1 -0.44098,1 -0.24254,0 -0.7191,-0.45 -1.05902,-1 z m -1.92609,-2.730119 c 1.88863,-3.928862 2.99752,-4.759029 2.99752,-2.244081 0,1.033429 -0.18444,1.694527 -0.40986,1.469106 -0.22542,-0.225421 -1.24923,0.583507 -2.27513,1.797619 -1.84781,2.186813 -1.85073,2.177241 -0.31253,-1.022644 z M 74.753835,82.166667 c -0.272309,-1.041315 0.05004,-1.833334 0.746165,-1.833334 0.696124,0 1.018474,0.792019 0.746165,1.833334 C 75.98248,83.175 75.646705,84 75.5,84 75.353295,84 75.01752,83.175 74.753835,82.166667 Z M 137.5,83 c 0.33992,-0.55 0.81648,-1 1.05902,-1 0.24254,0 0.44098,0.45 0.44098,1 0,0.55 -0.47656,1 -1.05902,1 -0.58246,0 -0.7809,-0.45 -0.44098,-1 z m -6,-5.192378 C 130.95,76.53843 129.8625,75.5 129.08333,75.5 c -1.49701,0 -2.84365,-2.447063 -1.41666,-2.57431 0.45833,-0.04087 1.8602,-0.265239 3.11525,-0.498597 1.40719,-0.261645 2.50152,0.147971 2.85479,1.068566 0.31507,0.82107 1.08821,1.237068 1.71807,0.92444 0.62987,-0.312628 0.41022,0.03868 -0.48811,0.780676 -0.89833,0.742 -1.79833,2.151301 -2,3.131779 -0.313,1.521748 -0.51305,1.444911 -1.36667,-0.524932 z m 1.03759,-3.603369 c -1.07195,-1.071951 -3.5155,-1.049009 -4.18813,0.03932 -0.37337,0.604124 -0.18851,0.774988 0.42693,0.394622 0.59698,-0.368952 1.3726,-0.20614 1.72361,0.361803 0.35101,0.567943 1.08704,0.755222 1.63563,0.416176 0.54859,-0.339046 0.72947,-0.884411 0.40196,-1.211923 z M 80.5,75 c 0.339919,-0.55 0.816476,-1 1.059017,-1 C 81.801558,74 82,74.45 82,75 82,75.55 81.523442,76 80.940983,76 80.358524,76 80.160081,75.55 80.5,75 Z m 3.064293,-0.706872 c -0.542685,-1.425198 -0.427821,-1.540062 0.559795,-0.559795 0.683418,0.678334 0.990671,1.485241 0.682784,1.793128 -0.307887,0.307888 -0.867048,-0.247112 -1.242579,-1.233333 z M 102,67.606989 c 0,-0.216156 0.69837,-0.661002 1.55194,-0.988546 0.88992,-0.341496 1.29132,-0.173849 0.94098,0.393011 C 103.90566,67.961658 102,68.416902 102,67.606989 Z M 117,67 c 0,-0.55 0.45,-1 1,-1 0.55,0 1,0.45 1,1 0,0.55 -0.45,1 -1,1 -0.55,0 -1,-0.45 -1,-1 z M 95.5,65 C 95.160081,64.45 95.358524,64 95.940983,64 96.523442,64 97,64.45 97,65 97,65.55 96.801558,66 96.559017,66 96.316476,66 95.839919,65.55 95.5,65 Z"
       id="path4991"
       inkscape:connector-curvature="0" />
  </g>
</svg>
