<?xml version="1.0" encoding="UTF-8" standalone="no"?>
<!-- Created with Inkscape (http://www.inkscape.org/) -->

<svg
   xmlns:dc="http://purl.org/dc/elements/1.1/"
   xmlns:cc="http://creativecommons.org/ns#"
   xmlns:rdf="http://www.w3.org/1999/02/22-rdf-syntax-ns#"
   xmlns:svg="http://www.w3.org/2000/svg"
   xmlns="http://www.w3.org/2000/svg"
   xmlns:sodipodi="http://sodipodi.sourceforge.net/DTD/sodipodi-0.dtd"
   xmlns:inkscape="http://www.inkscape.org/namespaces/inkscape"
   id="svg3374"
   version="1.1"
   inkscape:version="0.91 r13725"
   width="463"
   height="463"
   viewBox="0 0 463 463"
   sodipodi:docname="tw.svg">
  <metadata
     id="metadata3380">
    <rdf:RDF>
      <cc:Work
         rdf:about="">
        <dc:format>image/svg+xml</dc:format>
        <dc:type
           rdf:resource="http://purl.org/dc/dcmitype/StillImage" />
        <dc:title></dc:title>
      </cc:Work>
    </rdf:RDF>
  </metadata>
  <defs
     id="defs3378">
    <inkscape:perspective
       sodipodi:type="inkscape:persp3d"
       inkscape:vp_x="0 : 231.5 : 1"
       inkscape:vp_y="0 : 1000 : 0"
       inkscape:vp_z="463 : 231.5 : 1"
       inkscape:persp3d-origin="231.5 : 154.33333 : 1"
       id="perspective3690" />
  </defs>
  <sodipodi:namedview
     pagecolor="#ffffeb"
     bordercolor="#666666"
     borderopacity="1"
     objecttolerance="10"
     gridtolerance="10"
     guidetolerance="10"
     inkscape:pageopacity="0"
     inkscape:pageshadow="2"
     inkscape:window-width="1137"
     inkscape:window-height="954"
     id="namedview3376"
     showgrid="false"
     inkscape:zoom="1.4417037"
     inkscape:cx="214.36998"
     inkscape:cy="216.42871"
     inkscape:window-x="82"
     inkscape:window-y="20"
     inkscape:window-maximized="0"
     inkscape:current-layer="svg3374" />
  <rect
     style="fill:#ffffff;fill-opacity:1"
     id="rect3724"
     width="392.59103"
     height="409.93167"
     x="42.834335"
     y="21.161652" />
  <g
     id="g5571">
    <path
       style="fill:#d1f0fd"
       d="M 0,231.5 0,0 231.5,0 463,0 463,231.5 463,463 231.5,463 0,463 0,231.5 Z m 201.5,138.94434 c 43.64307,-6.37727 91.50248,-31.01638 122.54042,-63.08662 22.99668,-23.76152 39.54974,-57.97215 47.83303,-98.85772 3.06475,-15.12737 6.11013,-38.18842 6.14065,-46.5 0.009,-2.475 0.34713,-4.97281 0.75121,-5.55069 0.40408,-0.57788 4.14519,-3.59728 8.31358,-6.70978 9.17908,-6.85394 22.05451,-20.12054 24.85519,-25.61032 l 2.0453,-4.00912 -5.56675,2.54854 c -5.01942,2.29796 -26.05971,7.2947 -30.82674,7.32087 -1.3956,0.008 -0.71837,-0.92273 2.5,-3.43457 7.28617,-5.68663 15.0571,-15.90979 20.87518,-27.462658 l 3.22696,-6.407728 -3.34401,2.233651 c -8.83424,5.900865 -24.2385,11.348295 -35.78474,12.654605 l -5.76933,0.65273 -6.39497,-5.16936 C 338.98912,91.815432 326.58829,87.0157 309.5,86.260181 290.24159,85.408715 274.95473,90.616481 260.16229,103.06803 248.84485,112.5945 241.0395,124.06945 236.40131,138 c -2.01213,6.04332 -2.59878,24.40091 -1.06739,33.40101 l 0.83392,4.901 -11.83392,-0.6186 C 203.0314,174.56984 181.7415,168.23687 156,155.35656 126.8373,140.76438 101.40124,121.71753 88.201306,104.58803 c -2.166742,-2.81177 -2.293746,-2.84618 -3.691027,-1 -16.211151,21.41923 -7.129778,69.6476 16.654741,88.44817 3.99806,3.16029 4.67016,4.08982 3.32924,4.60438 -2.8705,1.10151 -17.527867,-1.50935 -23.29438,-4.14935 l -5.491212,-2.51396 0.603073,6.45817 c 1.251074,13.39746 8.617888,29.70878 18.2623,40.43569 8.814229,9.80355 24.435639,18.98744 35.233879,20.71415 2.30565,0.36868 4.19208,1.01794 4.19208,1.44279 0,1.64892 -10.97613,3.4706 -20.74711,3.44335 -11.67531,-0.0326 -11.21538,-0.68224 -6.56405,9.2719 3.45277,7.38913 10.51346,16.44961 16.61301,21.31829 10.02946,8.00553 27.17548,14.77163 38.10811,15.03807 2.24952,0.0548 5.20723,0.41077 6.57268,0.79099 2.25982,0.62926 1.58002,1.2922 -7.57426,7.38645 -15.97887,10.63756 -33.62727,18.11368 -52.90838,22.41276 -3.85,0.85843 -14.344998,1.84188 -23.322219,2.18545 L 67.855563,341.5 l 9.095998,4.92472 c 27.162589,14.70625 54.058309,23.15756 81.497099,25.60842 11.31946,1.01106 29.96922,0.3228 43.05134,-1.5888 z"
       id="path5585"
       inkscape:connector-curvature="0" />
    <path
       style="fill:#afe6fd"
       d="M 0,231.5 0,0 231.5,0 463,0 463,231.5 463,463 231.5,463 0,463 0,231.5 Z m 190.5,140.4611 c 55.94271,-5.27506 117.88414,-39.23622 147.75685,-81.01193 7.41505,-10.36963 18.95702,-32.64146 23.81231,-45.94917 7.34028,-20.11874 13.66112,-51.18618 15.83515,-77.83109 0.5085,-6.2321 1.07555,-11.43521 1.26012,-11.56246 15.13967,-10.43834 25.25225,-19.71321 31.17566,-28.5931 2.01295,-3.01766 3.65991,-5.8054 3.65991,-6.19497 0,-0.38958 -2.48781,0.39191 -5.52847,1.73663 -4.279,1.89237 -27.30984,7.44499 -30.87993,7.44499 -0.36142,0 2.63764,-3.2625 6.66457,-7.25 7.09175,-7.02232 14.98827,-18.30038 18.20433,-26 1.39146,-3.331325 0.66042,-5.372707 -0.97589,-2.725102 -2.26891,3.671183 -25.06892,12.029602 -36.81874,13.497642 -5.55155,0.69362 -5.9571,0.59002 -8.98985,-2.29659 -9.18548,-8.742869 -23.77725,-16.140182 -36.05542,-18.278333 -10.67971,-1.859791 -26.50122,-0.789993 -36.1206,2.442355 -15.24904,5.124054 -32.09046,19.051118 -40.78208,33.724878 -6.20263,10.47167 -8.21711,18.41068 -8.21755,32.38515 -2e-4,6.6 0.35327,13.98017 0.78549,16.40037 l 0.78587,4.40037 -11.28587,-0.61105 c -20.55014,-1.11264 -43.00189,-7.74524 -68.3313,-20.18612 C 131.53119,143.26212 104.98447,124.08526 92.35694,109.20064 89.230429,105.51529 86.187116,102.5 85.594022,102.5 c -0.593095,0 -2.51561,2.88299 -4.272257,6.40664 -12.149934,24.3715 -1.806881,66.7739 20.423905,83.72989 3.82109,2.91444 4.01432,3.25858 1.99285,3.54923 -4.698608,0.67556 -15.84953,-1.1511 -21.868778,-3.58238 -3.450023,-1.39353 -6.353471,-2.43687 -6.452107,-2.31853 -0.683274,0.81973 2.081606,14.83267 4.09408,20.74959 3.955529,11.62974 9.034752,19.71321 17.95534,28.57554 8.833985,8.77628 19.889145,15.21569 30.282945,17.63919 2.8875,0.67327 5.25,1.52276 5.25,1.88774 0,1.53335 -11.19563,3.31627 -20.25,3.22486 -7.11902,-0.0719 -9.75,0.23454 -9.75,1.13553 0,0.67869 1.55294,4.33195 3.45097,8.11834 10.85214,21.64895 30.36871,34.31728 56.83373,36.89113 l 6.78469,0.65985 -4.28469,3.24525 c -10.93459,8.2819 -27.30561,16.74516 -41.7847,21.60126 -13.40628,4.49629 -23.07567,6.11849 -39.900262,6.69392 l -16.400262,0.56091 3.900262,2.42425 c 6.61939,4.11434 27.456732,13.94178 36.400262,17.16732 27.49138,9.91492 55.341,13.66249 82.5,11.10157 z"
       id="path5583"
       inkscape:connector-curvature="0" />
    <path
       style="fill:#8bdcfd"
       d="M 0,231.5 0,0 231.5,0 463,0 463,231.5 463,463 231.5,463 0,463 0,231.5 Z m 206,138.49448 c 36.96955,-6.76999 71.33999,-22.92442 103.5,-48.64595 26.92191,-21.53212 44.82035,-49.72721 56.92447,-89.67214 5.61659,-18.53534 9.54686,-40.88383 12.10575,-68.8363 l 0.60967,-6.65991 9.3752,-7.13986 c 5.15636,-3.92693 11.72613,-9.70497 14.59948,-12.84009 C 408.02147,130.8463 414,122.45429 414,120.92046 c 0,-0.37839 -2.72408,0.41233 -6.05351,1.75714 -4.75595,1.92102 -27.42427,7.3224 -30.73037,7.3224 -0.37497,0 1.67469,-2.06137 4.5548,-4.58082 2.88011,-2.51946 7.24855,-7.19554 9.70763,-10.3913 4.63899,-6.02872 12.4828,-19.643967 12.50738,-21.710256 0.008,-0.650306 -2.228,0.326428 -4.96831,2.17052 -6.96722,4.688586 -19.1931,9.184436 -30.35328,11.161876 l -9.47488,1.67882 -5.84473,-5.22344 C 346.00078,96.542116 332.4519,89.681916 322.42962,87.452172 316.52509,86.138538 311.91526,85.861034 302.61733,86.259504 282.09162,87.139151 270.75285,92.30697 254.91628,108 c -7.94843,7.87637 -10.29781,10.95272 -13.74648,18 -6.17349,12.61536 -7.49874,19.0624 -6.87953,33.46729 0.28448,6.61799 0.85682,13.11705 1.27186,14.44235 l 0.75463,2.40964 -10.40838,-0.59426 c -44.74962,-2.55496 -104.60817,-33.031 -135.647621,-69.06285 -2.292137,-2.6608 -4.647058,-4.54146 -5.233156,-4.17923 -0.586099,0.36223 -2.18529,2.86813 -3.553757,5.56867 -12.038961,23.75775 -3.496604,63.15521 17.931082,82.69839 l 5.756242,5.25 -5.870484,0 c -6.886992,0 -16.405157,-2.28493 -21.137763,-5.07433 l -3.347077,-1.97277 0.666771,5.27355 c 2.287438,18.09154 9.191534,32.52724 21.469684,44.89073 7.238649,7.28898 10.021989,9.32196 18.057699,13.18959 5.225,2.51482 11.19247,4.8756 13.26105,5.24617 2.06857,0.37058 3.98713,1.03961 4.26347,1.48673 1.38032,2.23341 -22.50152,4.37195 -28.29365,2.53361 -2.15637,-0.68441 -2.1657,-0.64002 -0.72408,3.44596 6.65248,18.85514 23.58671,34.93024 42.57212,40.41229 3.06839,0.886 9.73824,2.16805 14.82188,2.84901 l 9.24297,1.2381 -9.32188,6.13215 c -12.21881,8.03784 -23.67685,13.69156 -36.17056,17.84761 -16.80566,5.59042 -25.265667,6.97098 -42.817164,6.98716 l -15.665844,0.0144 4.665844,2.92338 c 8.654683,5.42257 30.583794,15.39744 42.794324,19.46581 12.48681,4.16041 27.22851,7.47611 40.37152,9.08033 11.9465,1.45818 38.8272,0.43721 52,-1.97504 z"
       id="path5581"
       inkscape:connector-curvature="0" />
    <path
       style="fill:#6fd4fd"
       d="M 0,231.5 0,0 231.5,0 463,0 463,231.5 463,463 231.5,463 0,463 0,231.5 Z m 193.5,140.45616 c 44.56946,-5.08802 93.21796,-27.96815 126.37492,-59.43605 33.50721,-31.80031 53.01705,-81.28223 58.64604,-148.74129 l 0.64428,-7.72118 6.66738,-4.74708 c 8.82159,-6.28085 22.17495,-19.61763 25.63757,-25.60573 1.52504,-2.63735 2.57123,-4.99674 2.32487,-5.24311 -0.24637,-0.24636 -2.22416,0.41025 -4.39511,1.45913 -4.47011,2.15973 -12.83556,4.42558 -22.39995,6.06723 -3.575,0.61362 -7.37637,1.37586 -8.44749,1.69387 -1.07112,0.318 0.87631,-2.03615 4.32761,-5.23145 7.12811,-6.59937 13.44858,-15.08612 18.00197,-24.17198 3.95948,-7.900762 3.9219,-8.993537 -0.20113,-5.848747 -7.12672,5.435811 -23.31191,11.142387 -36.99262,13.042847 -4.61708,0.64139 -4.98998,0.50405 -9.22103,-3.39598 C 339.79349,90.550774 318.77214,83.752203 298.68209,86.034991 280.40218,88.112096 269.36588,93.656097 254.9569,108 c -13.37817,13.31774 -19.41967,25.46427 -21.38756,43 -0.57298,5.10575 0.64086,18.93619 2.05222,23.383 0.58699,1.84943 0.18097,1.90709 -9.34367,1.32682 -43.48604,-2.64928 -97.60474,-29.14862 -131.114604,-64.20055 -5.167693,-5.4055 -9.664284,-9.31767 -10.275446,-8.93995 -1.825991,1.12852 -6.754063,12.46991 -7.980277,18.36569 -1.642834,7.89892 -0.581756,26.81994 1.99446,35.56499 3.861114,13.10668 9.643414,23.23155 18.132377,31.75 l 7.72318,7.75 -4.829571,0 c -6.5207,0 -14.428838,-1.74988 -20.178009,-4.46491 -5.600249,-2.64471 -5.536784,-2.80858 -3.341014,8.62694 5.05694,26.33644 22.278544,47.29424 45.536544,55.4156 4.15496,1.45086 8.22947,2.8762 9.05447,3.16744 0.90174,0.31833 -0.29479,1.0917 -3,1.93905 -3.0229,0.94686 -8.02903,1.31209 -15.25123,1.1127 -5.91318,-0.16325 -10.75068,-0.15524 -10.75,0.0178 6.8e-4,0.17304 0.98682,2.64804 2.19143,5.5 5.97057,14.13552 16.91062,26.37399 29.34114,32.82348 9.28405,4.81696 15.23721,6.65005 26.53587,8.1709 l 9.43279,1.26968 -7.29789,5.13416 c -14.94266,10.51233 -35.5539,19.40396 -54.24544,23.4013 -8.172369,1.74774 -13.90077,2.25259 -26.222468,2.31106 -13.208239,0.0627 -15.479346,0.28632 -14,1.37868 0.971189,0.71714 8.740798,4.79261 17.265798,9.0566 35.79179,17.90218 73.03808,25.14398 108.5,21.09568 z"
       id="path5579"
       inkscape:connector-curvature="0" />
    <path
       style="fill:#4fcafd"
       d="M 0,231.5 0,0 231.5,0 463,0 463,231.5 463,463 231.5,463 0,463 0,231.5 Z m 197.19878,140.00815 c 38.9598,-5.14301 78.96498,-22.89031 112.37723,-49.85335 39.29558,-31.71078 62.36491,-82.85755 68.48796,-151.84398 l 1.21501,-13.68918 8.72456,-6.51511 c 10.25325,-7.65667 20.42507,-18.30337 24.31462,-25.44977 l 2.76788,-5.0855 -5.29302,2.42205 c -5.77268,2.64154 -13.09496,4.64407 -24.95161,6.82388 l -7.6586,1.40801 5.98621,-5.54217 c 3.29241,-3.04819 7.92374,-8.27386 10.29183,-11.6126 C 397.47628,106.90915 405.54967,92 404.59986,92 c -0.23391,0 -2.79806,1.562652 -5.69811,3.472559 -6.78612,4.469196 -19.74596,9.141261 -30.61416,11.036521 l -8.56523,1.49365 -5.81421,-4.76161 C 336.82446,89.25024 317.82029,83.350698 298.01648,85.890435 c -17.96581,2.304021 -31.49269,9.254455 -44.78234,23.010225 -14.78682,15.30546 -22.04185,36.12389 -19.40832,55.69254 0.5909,4.39071 1.39793,8.82631 1.7934,9.85688 0.68135,1.77559 0.22542,1.84132 -8.70009,1.25427 -22.25928,-1.46405 -46.3185,-8.54436 -71.09173,-20.92136 -25.81255,-12.89626 -45.18066,-26.81779 -61.498321,-44.20413 l -8.887825,-9.46992 -2.621896,4.19553 c -4.616851,7.38784 -6.1297,13.35314 -6.59745,26.01439 -0.840871,22.76105 6.336371,42.38864 20.818069,56.93114 l 7.717603,7.75 -5.168693,0 c -6.153543,0 -15.071524,-2.18525 -20.758905,-5.08674 l -4.109019,-2.09626 0.675476,5.97042 c 3.268029,28.88555 22.516187,53.4841 48.058671,61.41747 3.87469,1.20346 7.4305,2.5078 7.9018,2.89852 1.69433,1.40466 -10.92203,3.11043 -20.05216,2.71111 -10.82942,-0.47364 -10.50775,-1.27408 -4.4952,11.18548 5.04031,10.44484 17.62424,23.00918 28.19045,28.14657 9.13331,4.4407 13.82789,5.7862 25.5,7.30846 l 9,1.17377 -9.5,6.28724 c -10.97595,7.26404 -15.95413,9.90277 -27.30557,14.47355 -18.23246,7.3415 -39.767439,11.24533 -56.94443,10.32282 -5.3625,-0.28801 -9.75,-0.37494 -9.75,-0.19318 0,0.18176 3.9375,2.58315 8.75,5.33643 38.28015,21.90046 81.80226,31.01816 122.44878,25.65249 z"
       id="path5577"
       inkscape:connector-curvature="0" />
    <path
       style="fill:#35c3fd"
       d="M 0,231.5 0,0 231.5,0 463,0 463,231.5 463,463 231.5,463 0,463 0,231.5 Z m 199.14815,139.93551 c 22.4091,-3.12553 41.60553,-9.19653 64.35185,-20.35171 29.84104,-14.63455 56.63298,-35.4995 72.68635,-56.60646 22.72231,-29.87526 37.52584,-73.74892 41.90564,-124.19696 l 1.23451,-14.21963 6.08675,-4.26485 c 8.68353,-6.08436 20.94919,-18.08896 25.60294,-25.05801 2.1911,-3.28119 3.98381,-6.37366 3.98381,-6.87217 0,-0.4985 -1.8654,0.0453 -4.14533,1.20842 -4.43565,2.2629 -19.14401,6.22914 -27.35467,7.37644 l -5,0.69866 6.63683,-6.82462 c 7.62212,-7.83779 13.75583,-16.57187 17.35782,-24.716604 C 403.87259,94.492242 405,91.707903 405,91.420595 c 0,-0.287308 -1.4625,0.575912 -3.25,1.918265 -8.11745,6.095934 -23.62314,11.86652 -36.62749,13.63124 l -5.50819,0.74748 -7.55716,-6.01762 c -30.11851,-23.9828 -70.14649,-21.70924 -97.30244,5.52671 -17.54984,17.60153 -24.44792,38.46588 -20.38182,61.64809 l 1.29351,7.37477 -9.5832,-0.68053 C 192.11661,173.15695 152.3788,157.02151 118.10853,131.72613 107.84649,124.15158 92.547433,109.89454 88.84195,104.45291 87.553878,102.56132 86.275,101.01367 86,101.01367 c -0.275,0 -1.537344,1.52352 -2.805208,3.38561 -8.230649,12.08821 -9.93125,34.13701 -4.106284,53.23919 4.285446,14.05353 13.277189,28.37477 22.045152,35.11153 l 4.22991,3.25 -4.93179,-0.0148 c -6.289231,-0.0188 -16.314313,-2.37448 -21.615986,-5.07919 l -4.121243,-2.10251 0.626372,5.84824 c 0.976287,9.1153 3.351792,17.1448 7.647127,25.84824 8.990933,18.21791 22.93589,30.22215 42.53195,36.61278 l 7,2.28283 -5.5,1.339 c -3.42042,0.83271 -9.19387,1.19321 -15.26939,0.95342 -11.3738,-0.44889 -11.02145,-1.2441 -5.01224,11.31197 2.78399,5.81706 5.51832,9.41997 12.18553,16.05634 12.29429,12.23742 24.63037,17.85067 43.34297,19.72222 l 7.25313,0.72542 -8.68195,5.79494 c -25.17642,16.8045 -50.84869,24.90282 -79.561365,25.09765 -18.179419,0.12335 -18.278618,-0.20046 3.243315,10.58686 20.83818,10.4446 41.24666,17.16872 60.5,19.93333 4.125,0.59231 8.625,1.24207 10,1.44391 7.11748,1.04476 34.07465,0.47985 44.14815,-0.92516 z"
       id="path5575"
       inkscape:connector-curvature="0" />
    <path
       style="fill:#00b3fd"
       d="M 0,231.5 0,0 231.5,0 463,0 463,231.5 463,463 231.5,463 0,463 0,231.5 Z m 199.5,140.03343 c 35.98474,-5.14555 71.42682,-20.42173 103.96855,-44.81231 44.18664,-33.11866 68.45218,-83.90316 74.71369,-156.36565 l 1.24942,-14.45913 3.49837,-2.16211 c 10.29941,-6.36539 24.38338,-20.29377 29.70837,-29.38018 2.91837,-4.97982 2.66586,-6.2424 -0.80164,-4.00824 -3.30077,2.12674 -13.88485,5.30355 -23.69723,7.11272 -4.59826,0.84781 -8.54722,1.54147 -8.77548,1.54147 -0.22825,0 2.21415,-2.5875 5.42757,-5.75 8.12521,-7.99646 17.07702,-21.71846 19.71749,-30.224415 l 0.76812,-2.474415 -3.38862,2.582539 c -7.78452,5.932761 -24.16056,12.060861 -36.63398,13.708861 -5.54141,0.73214 -6.44314,0.60507 -8,-1.12732 -3.25638,-3.62355 -14.02664,-10.740072 -21.41435,-14.149686 -21.89313,-10.104221 -48.48477,-8.20112 -68.19292,4.880406 -17.30168,11.4842 -29.38603,28.42885 -33.26785,46.64809 -1.53364,7.1981 -1.41555,20.62128 0.26179,29.75639 l 0.61519,3.35045 -8.87825,-0.68691 C 199.458,173.43116 168.44144,162.88928 140.5,146.32577 119.85569,134.08795 99.057865,117.35022 90.417522,106.02025 88.311851,103.25911 86.250466,101 85.836668,101 c -1.308972,0 -5.989839,8.83072 -8.102486,15.2858 -2.952534,9.02131 -2.903411,26.23149 0.107181,37.55083 4.1895,15.75184 12.123588,29.58351 21.89583,38.17148 l 4.762807,4.18561 -7,-0.62565 C 90.355104,194.92947 78.47964,191.58509 77.451845,189.92208 76.167749,187.84437 75,189.23412 75,192.84004 c 0,6.43849 3.739287,19.17045 8.428401,28.698 7.927313,16.10706 22.152239,28.77646 38.770459,34.53082 4.37768,1.51585 8.1948,2.99146 8.48247,3.27914 1.11557,1.11557 -7.66591,2.15023 -17.93133,2.11271 -6.9777,-0.0255 -10.75,0.33531 -10.75,1.02821 0,0.58713 1.57184,4.34738 3.49297,8.35612 10.59739,22.11303 30.43499,35.58152 55.86919,37.93168 l 7.82755,0.72328 -9.45686,6.24806 c -25.09628,16.58086 -50.60931,24.45406 -79.56271,24.55267 l -15.32986,0.0522 3.82986,2.37459 c 9.768964,6.05697 32.32072,16.37148 44.92489,20.54734 11.88778,3.93851 27.68487,7.61015 38.90497,9.04249 7.96588,1.01691 37.89742,0.51767 47,-0.78393 z"
       id="path5573"
       inkscape:connector-curvature="0" />
  </g>
</svg>
